<svg width="84" height="84" fill="none" xmlns="http://www.w3.org/2000/svg">
    <path d="M56.108 57.908h12.96C74.18 57.824 82 60.516 82 70.228 82 80.308 72.352 82 69.064 82h-43.28C15.752 82 2 79.964 2 62.68V26.008h80v18.068m-17.992 5.828l-6.808 5.68a3.2 3.2 0 00-1.092 2.32 3.2 3.2 0 001.1 2.492l6.8 5.532M2.024 25.964l3.684-9.2C8.7 9.608 10.196 6.032 13.228 4.02 16.26 2.008 20.148 2 27.92 2H56c7.776 0 11.664 0 14.696 2.016 3.032 2.012 4.524 5.588 7.52 12.74L82 25.98m-40.148.024v-24m-8 40h16" stroke="#CA2A38" stroke-width="3" stroke-linecap="round" stroke-linejoin="round"/>
</svg>
