<svg width="90" height="90" fill="none" xmlns="http://www.w3.org/2000/svg">
    <path d="M42.348 87.584a7.979 7.979 0 01-5.35-5.876 8.236 8.236 0 00-12.294-5.093c-7.372 4.49-15.814-3.947-11.323-11.324a8.237 8.237 0 00-5.089-12.288c-8.39-2.036-8.39-13.97 0-16.006a8.236 8.236 0 005.093-12.293C8.895 17.332 17.332 8.89 24.71 13.381c4.778 2.905 10.97.334 12.288-5.089 2.036-8.39 13.97-8.39 16.006 0a8.236 8.236 0 0012.293 5.093c7.372-4.49 15.814 3.947 11.323 11.324a8.237 8.237 0 005.089 12.288c6.259 1.52 7.85 8.552 4.763 12.872M59.333 78.444L68.89 88 88 68.889" stroke="#CA2A38" stroke-width="3" stroke-linecap="round" stroke-linejoin="round"/>
    <path d="M30.667 45a14.333 14.333 0 1028.666 0 14.333 14.333 0 00-28.666 0z" stroke="#CA2A38" stroke-width="3" stroke-linecap="round" stroke-linejoin="round"/>
</svg>
