<svg width="76" height="95" fill="none" xmlns="http://www.w3.org/2000/svg">
    <path d="M38.406 44.343C33.168 40.457 25.318 33.66 2.812 33.66v48.657c22.506 0 30.356 6.796 35.594 10.682V44.343zm0 0C43.644 40.457 51.494 33.66 74 33.66v48.657c-22.506 0-30.356 6.796-35.594 10.682V44.343zm26.35-42.34H18.002a6.984 6.984 0 00-3.698 1.055L2 10.745l12.303 7.674a6.984 6.984 0 003.698 1.054h46.756a8.677 8.677 0 006.313-2.468 8.737 8.737 0 002.638-6.263 8.761 8.761 0 00-2.638-6.264 8.701 8.701 0 00-2.907-1.875 8.682 8.682 0 00-3.406-.6zm-12.443.38v17.09-17.09z" fill="#fff"/>
    <path d="M38.406 44.343C33.168 40.457 25.318 33.66 2.812 33.66v48.657c22.506 0 30.356 6.796 35.594 10.682m0-48.657V93m0-48.657C43.644 40.457 51.494 33.66 74 33.66v48.657c-22.506 0-30.356 6.796-35.594 10.682M52.313 2.383v17.09m12.444-17.47H18a6.984 6.984 0 00-3.698 1.055L2 10.745l12.303 7.674a6.984 6.984 0 003.698 1.054h46.756a8.677 8.677 0 006.313-2.468 8.737 8.737 0 002.638-6.263 8.761 8.761 0 00-2.638-6.264 8.701 8.701 0 00-2.907-1.875 8.682 8.682 0 00-3.406-.6z" stroke="#CA2A38" stroke-width="3" stroke-linecap="round" stroke-linejoin="round"/>
</svg>
