<svg width="95" height="95" fill="none" xmlns="http://www.w3.org/2000/svg">
    <path d="M19.5 47.502V29.093a27.509 27.509 0 0128-27.089 27.511 27.511 0 0128 27.09v18.408m-14 36.748a14 14 0 0014-13.999v-15.75m-14 29.75A8.75 8.75 0 0152.75 93h-10.5a8.75 8.75 0 110-17.5h10.5a8.75 8.75 0 018.75 8.75zM9 37.002h7a3.5 3.5 0 013.5 3.5V61.5a3.5 3.5 0 01-3.5 3.5H9a7 7 0 01-7-7V44.003a7 7 0 017-7zM86 65h-7a3.5 3.5 0 01-3.5-3.5V40.504a3.5 3.5 0 013.5-3.5h7a7 7 0 017 7v13.999a7 7 0 01-7 7z" stroke="#CA2A38" stroke-width="3" stroke-linecap="round" stroke-linejoin="round"/>
</svg>
