<svg width="23" height="24" fill="none" xmlns="http://www.w3.org/2000/svg">
    <path d="M3.149.591C.838 2.14-.258 3.903.05 5.571c.263 1.31 2.407 5.383 3.931 7.432 2.74 3.693 6.17 6.576 10.292 8.625 3.931 1.977 5.05 1.905 7.219-.477 2.382-2.644 2.073-3.597-1.882-5.884-1.453-.81-2.883-1.549-3.193-1.644-.929-.238-1.762.214-2.31 1.239-.263.524-.668.976-.906 1.024-.5.095-6.099-5.408-6.099-6.004 0-.214.286-.524.667-.667 1.072-.452 1.716-1.167 1.716-1.906 0-.833-2.954-6.241-3.764-6.885-.787-.619-1.478-.571-2.573.167zm2.072.62c.643.524 3.336 5.67 3.264 6.194-.048.333-.357.595-.905.786-1.191.405-1.62 1.239-1.191 2.287.428 1.048 5.122 5.742 6.146 6.147 1.048.428 1.81.071 2.359-1.096.262-.548.62-.93.905-.977.69-.095 5.646 2.811 6.051 3.55.334.595.31.69-.595 1.882-1.072 1.43-2.12 2.144-3.097 2.144-1.073 0-5.67-2.406-7.981-4.145-1.144-.858-2.621-2.168-3.312-2.93C3.65 11.55.6 5.974 1.005 4.378c.19-.738 1.214-1.93 2.382-2.763C4.435.853 4.697.782 5.22 1.21z" fill="#CA2A38"/>
</svg>
