<svg width="36" height="32" fill="none" xmlns="http://www.w3.org/2000/svg">
    <path d="M35.025.385a.815.815 0 00-.831-.142L1.145 13.176a1.667 1.667 0 00.286 3.19l9.09 1.784v10.085a1.957 1.957 0 002.72 1.8c.242-.104.46-.255.642-.444l4.566-4.729 7.012 6.15a1.957 1.957 0 003.201-1.03l6.624-28.798a.815.815 0 00-.26-.799zM1.388 14.761a.347.347 0 01.232-.37L30.1 3.245 11.021 16.92l-9.338-1.833a.346.346 0 01-.295-.325zm11.557 13.924a.653.653 0 01-1.12-.45v-9.181l5.639 4.94-4.519 4.69zm14.445 1a.652.652 0 01-1.071.342L12.22 17.664l21.477-15.39-6.308 27.412z" fill="#FD7228"/>
</svg>
