<svg width="20" height="23" fill="none" xmlns="http://www.w3.org/2000/svg">
    <path d="M5.6.273C3.506.955 1.459 2.79.518 4.837.048 5.826 0 6.343 0 9.826c0 3.717.024 3.93.635 5.223.683 1.483 2.33 3.247 3.46 3.718.681.259.729.376.729 1.412 0 2.235.352 2.376 1.976.729l1.13-1.153 3.105-.094c2.73-.07 3.224-.141 4.4-.706 1.694-.776 3.153-2.235 3.953-3.93.588-1.246.612-1.482.612-5.2 0-3.74-.023-3.929-.635-5.176-.824-1.67-2.283-3.13-3.93-3.953C14.188.085 13.93.061 10.353.014 7.718-.033 6.306.037 5.6.273zm8.941.988c1.341.447 3.035 1.906 3.883 3.341.635 1.083.635 1.153.635 5.224 0 4.635-.165 5.2-1.93 6.964-1.6 1.553-2.964 2.024-6.517 2.142l-3.083.117-.894.847-.87.847v-1.058c0-1.036-.047-1.106-.965-1.506-1.2-.565-2.635-1.93-3.318-3.224-.47-.894-.54-1.412-.611-4.541C.776 6.508.94 5.59 2.047 3.92c.777-1.13 2.447-2.447 3.624-2.8 1.247-.377 7.647-.283 8.87.141z" fill="#CA2A38"/>
    <path d="M10.235 3.52c0 .164.589.564 1.295.87 1.576.683 3.505 2.683 3.905 4.047.212.66.424.918.73.918.353 0 .423-.118.306-.541-.33-1.106-1.13-2.447-2.07-3.412-1.507-1.553-4.166-2.753-4.166-1.882zM4.87 5.12c-.752.729-.988 1.129-.988 1.694 0 2.282 3.389 6.094 7.318 8.188 1.482.776 2.212.87 2.965.353.54-.377 1.482-1.765 1.482-2.188 0-.424-2.73-2.165-3.365-2.165-.33 0-.706.165-.87.33-.541.682-2.47-.565-3.06-1.977-.234-.541-.21-.777.119-1.247.329-.494.329-.706.094-1.153-.424-.8-2.165-2.777-2.447-2.777-.142 0-.706.424-1.247.942zm2.165 1.176c.965 1.082.989 1.106.47 1.67-.258.283-.329.636-.21 1.13.21 1.035 1.928 2.8 3.058 3.2.87.282.988.282 1.459-.165l.494-.47 1.153.776c.612.424 1.153.777 1.2.824.188.14-.777 1.34-1.224 1.506-.964.376-4.753-2.07-6.659-4.283C4.706 8.108 4.282 6.72 5.318 5.85c.306-.259.635-.47.706-.494.094 0 .54.423 1.011.941z" fill="#CA2A38"/>
    <path d="M10.47 5.473c0 .212.283.47.66.612.87.33 1.882 1.317 2.423 2.376.494.988.918 1.153.918.424 0-.706-.542-1.647-1.46-2.494-1.293-1.224-2.54-1.671-2.54-.918zM10.588 7.002c-.141.235 1.624 2.118 2 2.118.73 0-.117-1.577-1.106-2.094-.611-.306-.705-.33-.894-.024z" fill="#CA2A38"/>
</svg>
