<svg width="35" height="34" fill="none" xmlns="http://www.w3.org/2000/svg">
    <path d="M17.127 9.428c-1.49 0-2.948.435-4.187 1.249a7.438 7.438 0 00-2.775 3.325 7.292 7.292 0 00-.43 4.28 7.37 7.37 0 002.063 3.793 7.577 7.577 0 003.859 2.027 7.657 7.657 0 004.354-.421 7.509 7.509 0 003.381-2.729 7.318 7.318 0 001.27-4.116 7.353 7.353 0 00-2.21-5.235 7.61 7.61 0 00-5.325-2.173zm0 13.47a6.242 6.242 0 01-3.426-1.022 6.084 6.084 0 01-2.27-2.72 5.965 5.965 0 01-.351-3.502 6.03 6.03 0 011.687-3.103 6.2 6.2 0 013.157-1.66 6.265 6.265 0 013.562.346 6.144 6.144 0 012.767 2.232 5.989 5.989 0 011.04 3.368 6.01 6.01 0 01-1.806 4.285 6.22 6.22 0 01-4.36 1.776zM25.347 0H8.907A8.995 8.995 0 002.61 2.567 8.69 8.69 0 000 8.755v16.163a8.69 8.69 0 002.611 6.188 8.995 8.995 0 006.295 2.567h16.442a8.995 8.995 0 006.294-2.567 8.69 8.69 0 002.612-6.188V8.755a8.69 8.69 0 00-2.612-6.188A8.994 8.994 0 0025.348 0zm7.536 24.918a7.354 7.354 0 01-2.21 5.236 7.611 7.611 0 01-5.325 2.172H8.906a7.611 7.611 0 01-5.326-2.172 7.353 7.353 0 01-2.21-5.236V8.755a7.353 7.353 0 012.21-5.236 7.61 7.61 0 015.326-2.172h16.442a7.61 7.61 0 015.326 2.172 7.354 7.354 0 012.21 5.236v16.163zm-5.48-16.836c0 .266-.08.526-.231.748-.15.221-.365.394-.615.496a1.392 1.392 0 01-1.493-.292 1.325 1.325 0 01-.297-1.468c.104-.246.28-.456.505-.604a1.387 1.387 0 011.73.167c.257.253.4.595.4.953z" fill="#CA2A38"/>
</svg>
