<svg width="52" height="43" fill="none" xmlns="http://www.w3.org/2000/svg">
    <path d="M51.971 32.006L46.56 10.039a2.936 2.936 0 00-1.025-1.6 2.862 2.862 0 00-1.78-.62H26.964V2.931c0-.778-.304-1.523-.846-2.073A2.867 2.867 0 0024.074 0h-9.63c-.766 0-1.5.309-2.042.859a2.954 2.954 0 00-.846 2.073v4.886h-3.31c-.645 0-1.271.218-1.78.62-.508.403-.869.966-1.025 1.601L.029 32.006A.991.991 0 000 32.25v7.818c0 .778.304 1.524.846 2.073.542.55 1.277.859 2.043.859H49.11c.766 0 1.501-.309 2.043-.859.542-.55.846-1.295.846-2.073V32.25a.995.995 0 00-.029-.244zM13.481 2.932c0-.26.102-.508.283-.691a.956.956 0 01.68-.286h9.63c.255 0 .5.103.681.286.18.183.282.432.282.69v4.887H13.482V2.932zm-6.17 7.574a.979.979 0 01.344-.53.954.954 0 01.59-.203h35.51c.213 0 .421.071.59.204.17.133.29.319.344.529l5.115 20.767H2.196L7.31 10.506zm41.8 30.54H2.89a.956.956 0 01-.681-.287.985.985 0 01-.282-.69v-6.842h48.148v6.841c0 .26-.101.508-.282.691a.956.956 0 01-.68.286zM11.556 16.613c0-.26.101-.508.282-.691a.956.956 0 01.68-.287h3.852c.256 0 .5.103.681.287a.985.985 0 010 1.382.956.956 0 01-.68.286h-3.852a.956.956 0 01-.681-.286.985.985 0 01-.282-.691zm11.555 0c0-.26.102-.508.282-.691a.956.956 0 01.681-.287h3.852c.255 0 .5.103.68.287a.985.985 0 010 1.382.956.956 0 01-.68.286h-3.852a.956.956 0 01-.68-.286.985.985 0 01-.283-.691zm11.556 0c0-.26.101-.508.282-.691a.956.956 0 01.68-.287h3.852c.256 0 .5.103.681.287a.985.985 0 010 1.382.956.956 0 01-.68.286H35.63a.956.956 0 01-.681-.286.985.985 0 01-.282-.691zm-23.111 7.818c0-.26.101-.508.282-.691a.956.956 0 01.68-.287h3.852c.256 0 .5.104.681.287a.985.985 0 010 1.382.956.956 0 01-.68.286h-3.852a.956.956 0 01-.681-.286.985.985 0 01-.282-.691zm11.555 0c0-.26.102-.508.282-.691a.956.956 0 01.681-.287h3.852c.255 0 .5.104.68.287a.985.985 0 010 1.382.956.956 0 01-.68.286h-3.852a.956.956 0 01-.68-.286.985.985 0 01-.283-.691zm11.556 0c0-.26.101-.508.282-.691a.956.956 0 01.68-.287h3.852c.256 0 .5.104.681.287a.985.985 0 010 1.382.956.956 0 01-.68.286H35.63a.956.956 0 01-.681-.286.985.985 0 01-.282-.691z" fill="#CA2A38"/>
</svg>
