<svg width="40" height="59" fill="none" xmlns="http://www.w3.org/2000/svg">
    <path d="M19.965 1.341c-2.39 0-4.757.484-6.965 1.423a18.175 18.175 0 00-5.905 4.054 18.742 18.742 0 00-3.945 6.068 19.147 19.147 0 00-1.385 7.156c0 14.636 13.895 32.248 17.536 36.575a1.106 1.106 0 001.582.114l.112-.114c3.592-4.344 17.17-21.939 17.17-36.576 0-2.456-.471-4.887-1.386-7.156a18.742 18.742 0 00-3.945-6.067 18.175 18.175 0 00-5.904-4.053 17.777 17.777 0 00-6.965-1.424zm0 23.776a6.056 6.056 0 01-3.429-1.069 6.308 6.308 0 01-2.273-2.846 6.504 6.504 0 01-.351-3.664A6.398 6.398 0 0115.6 14.29a6.124 6.124 0 013.16-1.735 6.02 6.02 0 013.566.36 6.212 6.212 0 012.77 2.336 6.467 6.467 0 011.04 3.524v.016a6.43 6.43 0 01-1.812 4.474 6.09 6.09 0 01-4.36 1.852z" stroke="#CA2A38" stroke-width="2.5" stroke-linecap="round" stroke-linejoin="round"/>
</svg>
