<svg width="48" height="42" fill="none" xmlns="http://www.w3.org/2000/svg">
    <path d="M4.711 41.306c-1.205 0-2.211-.392-3.017-1.175S.484 38.37.482 37.197V12.36c0-1.17.404-2.148 1.212-2.931.808-.783 1.813-1.176 3.015-1.178h11.475V4.73c0-1.17.404-2.147 1.212-2.932.808-.785 1.813-1.176 3.017-1.174h7.247c1.204 0 2.21.391 3.017 1.174.808.783 1.211 1.76 1.21 2.932V8.25h11.475c1.204 0 2.209.393 3.014 1.178.806.785 1.21 1.762 1.212 2.931V37.2c0 1.17-.404 2.146-1.212 2.931-.807.785-1.812 1.177-3.014 1.175H4.712zm0-2.543h38.65c.402 0 .771-.163 1.108-.488.336-.325.504-.685.502-1.078V12.36c0-.391-.167-.75-.502-1.078-.335-.327-.704-.49-1.107-.488H4.709c-.402 0-.77.163-1.107.488-.337.326-.504.685-.503 1.078V37.2c0 .39.168.748.503 1.075.335.327.704.49 1.107.488M18.8 8.251H29.27V4.73c0-.39-.167-.748-.502-1.076-.335-.327-.704-.49-1.107-.488h-7.25c-.4 0-.77.163-1.106.488-.337.326-.505.684-.503 1.076V8.25z" fill="#CA2A38"/>
</svg>
