<svg width="75" height="88" fill="none" xmlns="http://www.w3.org/2000/svg">
    <path d="M75 40.548V81.96a6.007 6.007 0 01-1.787 4.27A6.138 6.138 0 0168.896 88H6.105a6.138 6.138 0 01-4.317-1.769A6.007 6.007 0 010 81.961V40.548c0-1.602.643-3.138 1.788-4.27a6.138 6.138 0 014.317-1.77H16.57c.694 0 1.36.273 1.85.758.49.486.766 1.144.766 1.83 0 .687-.275 1.346-.766 1.83a2.63 2.63 0 01-1.85.759H6.105a.877.877 0 00-.617.253.858.858 0 00-.255.61V81.96c0 .228.091.448.255.61a.877.877 0 00.617.252h62.79c.232 0 .454-.09.618-.252a.858.858 0 00.255-.61V40.548a.858.858 0 00-.255-.61.877.877 0 00-.617-.253H58.43a2.63 2.63 0 01-1.85-.758 2.574 2.574 0 01-.767-1.83c0-.687.276-1.345.767-1.83a2.63 2.63 0 011.85-.759h10.465c1.619 0 3.172.637 4.317 1.77A6.007 6.007 0 0175 40.547zM21.908 21.67L34.884 8.837V50.9c0 .686.276 1.345.766 1.83a2.63 2.63 0 001.85.758 2.63 2.63 0 001.85-.758c.491-.485.767-1.144.767-1.83V8.837L53.094 21.67a2.616 2.616 0 001.867.824 2.641 2.641 0 001.897-.758 2.586 2.586 0 00.766-1.876 2.565 2.565 0 00-.833-1.848L39.35.757A2.631 2.631 0 0037.5 0a2.63 2.63 0 00-1.849.757L18.21 18.012a2.589 2.589 0 00-.832 1.848 2.564 2.564 0 00.766 1.876 2.62 2.62 0 001.896.758 2.641 2.641 0 001.868-.824z" fill="#2E2D2F"/>
    <mask id="a" style="mask-type:alpha" maskUnits="userSpaceOnUse" x="0" y="0" width="76" height="88">
        <path d="M75 40.548V81.96a6.007 6.007 0 01-1.787 4.27A6.138 6.138 0 0168.896 88H6.105a6.138 6.138 0 01-4.317-1.769A6.007 6.007 0 010 81.961V40.548c0-1.602.643-3.138 1.788-4.27a6.138 6.138 0 014.317-1.77H16.57c.694 0 1.36.273 1.85.758.49.486.766 1.144.766 1.83 0 .687-.275 1.346-.766 1.83a2.63 2.63 0 01-1.85.759H6.105a.877.877 0 00-.617.253.858.858 0 00-.255.61V81.96c0 .228.091.448.255.61a.877.877 0 00.617.252h62.79c.232 0 .454-.09.618-.252a.858.858 0 00.255-.61V40.548a.858.858 0 00-.255-.61.877.877 0 00-.617-.253H58.43a2.63 2.63 0 01-1.85-.758 2.574 2.574 0 01-.767-1.83c0-.687.276-1.345.767-1.83a2.63 2.63 0 011.85-.759h10.465c1.619 0 3.172.637 4.317 1.77A6.007 6.007 0 0175 40.547zM21.908 21.67L34.884 8.837V50.9c0 .686.276 1.345.766 1.83a2.63 2.63 0 001.85.758 2.63 2.63 0 001.85-.758c.491-.485.767-1.144.767-1.83V8.837L53.094 21.67a2.616 2.616 0 001.867.824 2.641 2.641 0 001.897-.758 2.586 2.586 0 00.766-1.876 2.565 2.565 0 00-.833-1.848L39.35.757A2.631 2.631 0 0037.5 0a2.63 2.63 0 00-1.849.757L18.21 18.012a2.589 2.589 0 00-.832 1.848 2.564 2.564 0 00.766 1.876 2.62 2.62 0 001.896.758 2.641 2.641 0 001.868-.824z" fill="#000"/>
    </mask>
    <g mask="url(#a)">
        <path fill="#132D6E" d="M-26.041-32.552H97.655v166.013H-26.041z"/>
    </g>
</svg>
